<svg width="830" height="220" viewBox="0 0 830 220" fill="none" xmlns="http://www.w3.org/2000/svg">
<rect width="830" height="220" fill="#339933"/>
<g clip-path="url(#clip0_331_25)">
<path d="M413.244 204.001C412.234 204.001 411.231 203.736 410.346 203.228L401.12 197.778C399.743 197.009 400.415 196.737 400.869 196.58C402.707 195.938 403.079 195.793 405.041 194.682C405.247 194.565 405.516 194.606 405.727 194.73L412.815 198.927C413.071 199.065 413.434 199.065 413.671 198.927L441.306 183.01C441.562 182.866 441.728 182.569 441.728 182.265V150.446C441.728 150.128 441.562 149.846 441.3 149.687L413.677 133.784C413.421 133.632 413.082 133.632 412.826 133.784L385.208 149.687C384.94 149.839 384.77 150.135 384.77 150.439V182.258C384.77 182.562 384.936 182.852 385.199 182.997L392.766 187.359C396.875 189.409 399.386 186.993 399.386 184.563V153.159C399.386 152.71 399.739 152.365 400.189 152.365H403.689C404.125 152.365 404.484 152.71 404.484 153.159V184.577C404.484 190.044 401.496 193.184 396.301 193.184C394.703 193.184 393.444 193.184 389.93 191.459L382.681 187.29C380.89 186.254 379.783 184.322 379.783 182.258V150.439C379.783 148.368 380.89 146.436 382.681 145.414L410.343 129.491C412.093 128.504 414.418 128.504 416.154 129.491L443.781 145.421C445.566 146.45 446.68 148.375 446.68 150.446V182.265C446.68 184.329 445.566 186.254 443.781 187.29L416.154 203.213C415.268 203.724 414.265 203.986 413.242 203.986" fill="#303030"/>
<path d="M421.78 182.075C409.689 182.075 407.154 176.537 407.154 171.892C407.154 171.45 407.511 171.098 407.954 171.098H411.523C411.918 171.098 412.25 171.384 412.312 171.773C412.852 175.402 414.456 177.233 421.768 177.233C427.592 177.233 430.069 175.92 430.069 172.838C430.069 171.064 429.363 169.746 420.315 168.862C412.748 168.117 408.072 166.453 408.072 160.414C408.072 154.851 412.775 151.538 420.654 151.538C429.501 151.538 433.887 154.602 434.44 161.187C434.461 161.415 434.378 161.636 434.226 161.801C434.074 161.96 433.859 162.057 433.638 162.057H430.048C429.674 162.057 429.349 161.794 429.273 161.436C428.408 157.619 426.319 156.397 420.64 156.397C414.283 156.397 413.543 158.606 413.543 160.262C413.543 162.271 414.415 162.857 422.992 163.989C431.487 165.114 435.519 166.702 435.519 172.659C435.519 178.663 430.497 182.108 421.74 182.108M455.4 148.363H456.327C457.087 148.363 457.233 147.831 457.233 147.521C457.233 146.706 456.672 146.706 456.361 146.706H455.407L455.4 148.363ZM454.272 145.754H456.327C457.032 145.754 458.416 145.754 458.416 147.328C458.416 148.425 457.71 148.653 457.288 148.791C458.111 148.846 458.167 149.384 458.277 150.144C458.333 150.62 458.422 151.441 458.588 151.717H457.323C457.288 151.441 457.094 149.923 457.094 149.84C457.011 149.502 456.894 149.336 456.472 149.336H455.427V151.724H454.272V145.754ZM451.803 148.722C451.803 151.193 453.802 153.194 456.257 153.194C458.734 153.194 460.733 151.151 460.733 148.722C460.733 146.244 458.706 144.277 456.25 144.277C453.829 144.277 451.796 146.216 451.796 148.715M461.591 148.736C461.591 151.662 459.19 154.05 456.264 154.05C453.359 154.05 450.938 151.69 450.938 148.736C450.938 145.726 453.414 143.421 456.264 143.421C459.135 143.421 461.584 145.733 461.584 148.736" fill="#303030"/>
<path fill-rule="evenodd" clip-rule="evenodd" d="M327.67 79.4991C327.67 78.2291 326.999 77.0626 325.901 76.4311L296.602 59.6104C296.107 59.3206 295.553 59.1687 294.992 59.148H294.689C294.127 59.1687 293.573 59.3206 293.07 59.6104L263.773 76.4311C262.681 77.0661 262 78.2325 262 79.5025L262.065 124.808C262.065 125.437 262.39 126.023 262.943 126.334C263.483 126.665 264.161 126.665 264.7 126.334L282.118 116.381C283.218 115.728 283.889 114.574 283.889 113.316V92.1508C283.889 90.8877 284.56 89.7212 285.656 89.0931L293.071 84.8317C293.622 84.5142 294.227 84.3568 294.842 84.3568C295.448 84.3568 296.067 84.5128 296.602 84.831L304.014 89.091C305.111 89.7191 305.785 90.8856 305.785 92.1487V113.313C305.785 114.569 306.465 115.729 307.559 116.377L324.966 126.323C325.512 126.648 326.192 126.648 326.736 126.323C327.273 126.013 327.614 125.426 327.614 124.798L327.67 79.4991ZM465.924 103.088C465.924 103.403 465.756 103.695 465.482 103.851L455.418 109.639C455.145 109.796 454.808 109.796 454.535 109.639L444.47 103.851C444.194 103.695 444.028 103.403 444.028 103.088V91.4951C444.028 91.1789 444.194 90.8877 444.463 90.7289L454.521 84.9311C454.798 84.7723 455.137 84.7723 455.414 84.9311L465.478 90.7289C465.755 90.8877 465.921 91.1789 465.921 91.4951L465.924 103.088ZM468.643 17.2235C468.094 16.9184 467.425 16.9267 466.883 17.2421C466.344 17.5596 466.01 18.1394 466.01 18.7675V63.6317C466.01 64.0734 465.775 64.4806 465.392 64.7015C465.011 64.9224 464.537 64.9224 464.153 64.7015L456.814 60.4836C455.721 59.8527 454.375 59.8527 453.278 60.4836L423.97 77.3615C422.875 77.9896 422.199 79.156 422.199 80.4122V114.178C422.199 115.441 422.875 116.6 423.97 117.235L453.278 134.125C454.372 134.753 455.72 134.753 456.818 134.125L486.126 117.228C487.219 116.593 487.897 115.434 487.897 114.171V30.0194C487.897 28.7384 487.198 27.5602 486.078 26.9342L468.643 17.2235ZM566.241 91.19C567.329 90.5591 568 89.394 568 88.1378V79.9546C568 78.6957 567.329 77.534 566.238 76.9004L537.116 60.0315C536.016 59.3965 534.667 59.3965 533.568 60.0315L504.266 76.9073C503.166 77.5423 502.495 78.7019 502.495 79.965V113.717C502.495 114.987 503.18 116.16 504.28 116.788L533.395 133.346C534.467 133.961 535.781 133.968 536.867 133.367L554.479 123.601C555.032 123.29 555.385 122.703 555.385 122.068C555.385 121.433 555.046 120.84 554.492 120.529L525.011 103.646C524.458 103.336 524.119 102.749 524.119 102.121V91.533C524.119 90.9008 524.451 90.3182 525.004 90.0035L534.176 84.7233C534.723 84.4058 535.394 84.4058 535.94 84.7233L545.119 90.0035C545.666 90.3141 546.005 90.9008 546.005 91.5289V99.8529C546.005 100.481 546.344 101.068 546.89 101.385C547.437 101.696 548.115 101.696 548.661 101.378L566.241 91.19Z" fill="#333333"/>
<path fill-rule="evenodd" clip-rule="evenodd" d="M534.913 89.6109C535.12 89.4887 535.381 89.4887 535.591 89.6109L541.215 92.848C541.425 92.9695 541.554 93.1931 541.554 93.4347V99.9159C541.554 100.157 541.425 100.381 541.215 100.503L535.591 103.74C535.381 103.862 535.12 103.862 534.913 103.74L529.293 100.503C529.078 100.381 528.947 100.157 528.947 99.9159V93.4347C528.947 93.1931 529.071 92.9695 529.286 92.848L534.913 89.6109Z" fill="#689F63"/>
<mask id="mask0_331_25" style="mask-type:luminance" maskUnits="userSpaceOnUse" x="342" y="59" width="66" height="75">
<path d="M373.177 60.2001L344.035 76.9841C342.943 77.6122 342.274 78.7718 342.274 80.0252V113.617C342.274 114.871 342.943 116.03 344.035 116.658L373.18 133.455C374.269 134.081 375.612 134.081 376.7 133.455L405.84 116.658C406.926 116.03 407.597 114.87 407.597 113.617V80.0252C407.597 78.7718 406.926 77.6122 405.833 76.9841L376.698 60.2001C376.151 59.8874 375.543 59.7307 374.934 59.7307C374.325 59.7307 373.716 59.8874 373.17 60.2001" fill="white"/>
</mask>
<g mask="url(#mask0_331_25)">
<path d="M437.047 74.1342L354.928 33.9705L312.823 119.678L394.939 159.843L437.047 74.1342Z" fill="url(#paint0_linear_331_25)"/>
</g>
<mask id="mask1_331_25" style="mask-type:luminance" maskUnits="userSpaceOnUse" x="342" y="59" width="65" height="75">
<path d="M342.996 115.749C343.275 116.11 343.623 116.423 344.034 116.658L369.033 131.066L373.197 133.454C373.819 133.813 374.529 133.965 375.226 133.913C375.459 133.895 375.691 133.851 375.918 133.787L406.654 77.6308C406.419 77.3754 406.144 77.1614 405.835 76.982L386.753 65.9868L376.667 60.1959C376.38 60.0302 376.07 59.9129 375.753 59.8301L342.996 115.749Z" fill="white"/>
</mask>
<g mask="url(#mask1_331_25)">
<path d="M307.491 86.0134L365.475 164.321L442.16 107.788L384.173 29.4825L307.491 86.0134Z" fill="url(#paint1_linear_331_25)"/>
</g>
<mask id="mask2_331_25" style="mask-type:luminance" maskUnits="userSpaceOnUse" x="344" y="59" width="64" height="75">
<path d="M374.586 59.7501C374.097 59.7984 373.619 59.9502 373.178 60.2001L344.119 76.9358L375.454 133.886C375.89 133.824 376.319 133.679 376.706 133.455L405.848 116.658C406.748 116.137 407.363 115.257 407.55 114.259L375.606 59.8073C375.371 59.7611 375.136 59.7369 374.894 59.7369C374.797 59.7369 374.7 59.7418 374.603 59.7507" fill="white"/>
</mask>
<g mask="url(#mask2_331_25)">
<path d="M344.118 59.7369V133.887H407.538V59.7369H344.118Z" fill="url(#paint2_linear_331_25)"/>
</g>
</g>
<defs>
<linearGradient id="paint0_linear_331_25" x1="395.963" y1="53.9892" x2="354.008" y2="139.763" gradientUnits="userSpaceOnUse">
<stop offset="0.3" stop-color="#3E863D"/>
<stop offset="0.5" stop-color="#55934F"/>
<stop offset="0.8" stop-color="#5AAD45"/>
</linearGradient>
<linearGradient id="paint1_linear_331_25" x1="336.831" y1="125.616" x2="413.4" y2="68.9165" gradientUnits="userSpaceOnUse">
<stop offset="0.57" stop-color="#3E863D"/>
<stop offset="0.72" stop-color="#619857"/>
<stop offset="1" stop-color="#76AC64"/>
</linearGradient>
<linearGradient id="paint2_linear_331_25" x1="344.139" y1="96.8141" x2="407.55" y2="96.8141" gradientUnits="userSpaceOnUse">
<stop offset="0.16" stop-color="#6BBF47"/>
<stop offset="0.38" stop-color="#79B461"/>
<stop offset="0.47" stop-color="#75AC64"/>
<stop offset="0.7" stop-color="#659E5A"/>
<stop offset="0.9" stop-color="#3E863D"/>
</linearGradient>
<clipPath id="clip0_331_25">
<rect width="306" height="187" fill="white" transform="translate(262 17)"/>
</clipPath>
</defs>
</svg>
